<svg viewBox="0 0 500 444.444" width="50" height="40" xmlns:xlink="http://www.w3.org/1999/xlink" xmlns="http://www.w3.org/2000/svg"><defs><linearGradient id="a"><stop style="stop-color:#f4ac0f;stop-opacity:1" offset="0"/><stop style="stop-color:#fbcb66;stop-opacity:1" offset=".503"/><stop style="stop-color:#f4ac0f;stop-opacity:1" offset=".991"/></linearGradient><linearGradient xlink:href="#a" id="b" x1="50" y1="258.689" x2="468.976" y2="258.689" gradientUnits="userSpaceOnUse" gradientTransform="translate(-62.034 -88.85)scale(1.2025)"/></defs><path d="M316.828 31.4v182.635H501.91V31.4Zm-202.13.138c-24.83 0-44.959 19.863-44.96 44.367s20.128 44.366 44.961 44.366 44.963-19.862 44.963-44.366S139.53 31.538 114.7 31.538zm78.673 95.884c-50.82 0-92.02 40.653-92.02 90.801s41.197 90.8 92.02 90.8c50.82 0 92.013-40.652 92.013-90.8s-41.196-90.8-92.014-90.8m123.21 102.986v182.636h185.084V230.41zM62.922 284.85c-35.806 0-64.834 28.641-64.832 63.974 0 35.33 29.028 63.968 64.832 63.97 35.805 0 64.83-28.64 64.83-63.97 0-35.333-29.023-63.974-64.83-63.974" fill="currentcolor" style="fill:url(#b);stroke-width:1"/></svg>