<svg width="500" height="125" viewBox="0 0 542.932 136.377" xml:space="preserve" xmlns:xlink="http://www.w3.org/1999/xlink" xmlns="http://www.w3.org/2000/svg">
  <defs>
    <linearGradient id="a">
      <stop style="stop-color:#1aa3fe;stop-opacity:1" offset=".3"/>
      <stop style="stop-color:#0ff;stop-opacity:1" offset="1"/>
    </linearGradient>
    <linearGradient xlink:href="#a" id="b" gradientUnits="userSpaceOnUse" x1="31.765" y1="151.607" x2="177.393" y2="151.607" gradientTransform="translate(9.506 -45.91)scale(1.00084)"/>
    <linearGradient xlink:href="#a" id="c" gradientUnits="userSpaceOnUse" x1="31.765" y1="151.607" x2="177.393" y2="151.607" gradientTransform="translate(9.506 -45.91)scale(1.00084)"/>
  </defs>
  <path style="baseline-shift:baseline;display:inline;overflow:visible;vector-effect:none;fill:url(#b)" d="M83.614 150.14c-2.348-.484-2.895-1.163-6.381-7.925C48.99 90.748 47.997 88.793 44.418 81.282c-1.57-2.17-2.205-4.837-1.002-7.266 8.515-12.877 15.875 5.888 19.125 12.17 5.763 10.946 12.215 21.705 17.782 32.741 2.552 5.105 4.804 9.28 5.004 9.28.378 0 4.042-7.689 8.01-16.808 7.002-16.088 7.792-17.451 11.685-20.17 2.55-1.78 8.682-2.123 11.94-.667 2.95 1.32 6.195 4.847 8.307 9.033 2.121 2.884 10.711 20.49 14.24 23.534 5.125 3.829 7.627-.393 9.822-4.902 7.523-18.03 10.232-21.987 18.977-43.248 5.191-12.858 5.744-13.577 10.434-13.577 3.5 0 4.728.712 6.301 3.652 1.057 1.975.517 4.678-2.052 10.275a529 529 0 0 0-4.19 9.455c-2.16 5.018-4.39 10.073-10.43 23.638-1.501 3.37-3.359 7.704-4.128 9.63-10.572 26.462-25.985 19.308-27.297 18.642-11.08-5.497-16.759-17.476-21.86-28.062-.893-1.907-2.048-3.63-2.566-3.827-10.2 9.499-11.632 47.708-28.906 45.335" transform="translate(-42.016 -15.366)"/>
  <path style="fill:url(#c);stroke-width:.771405" d="M178.744 59.902c-1.211 0-2.286.026-3.363.39-1.076.365-2.045 1.106-2.858 2.163-1.624 2.113-3.008 5.526-5.608 11.962-8.711 21.18-11.429 25.166-18.947 43.178-1.076 2.207-2.25 4.194-3.342 5.004-.55.405-1.003.56-1.619.516-.604-.044-1.454-.36-2.55-1.165-.575-.51-1.799-2.116-3.093-4.176-1.308-2.081-2.768-4.64-4.19-7.202-1.42-2.56-2.802-5.122-3.966-7.235-1.121-2.037-1.964-3.529-2.63-4.461-2.238-4.414-5.529-8.132-9.002-9.685-1.99-.888-4.495-1.144-6.934-1.008-2.44.137-4.779.628-6.48 1.816-2.004 1.4-3.476 2.718-5.116 5.55-1.64 2.83-3.581 7.202-7.083 15.25-1.98 4.547-3.882 8.738-5.33 11.778a101 101 0 0 1-1.33 2.682c-.103-.189-.16-.28-.274-.491a251 251 0 0 1-3.362-6.51l-.002-.005-.002-.002c-5.598-11.1-12.052-21.862-17.789-32.755l-.005-.01c-1.558-3.013-4.205-9.375-7.776-13.546-1.787-2.086-3.913-3.778-6.518-3.84-2.604-.063-5.136 1.646-7.412 5.088l-.05.078-.043.082c-1.49 3.01-.67 6.327 1.131 8.814l-.139-.234c3.583 7.516 4.613 9.541 32.855 61.01l-.019-.036c1.749 3.391 2.743 5.281 3.783 6.572.713.885 1.56 1.362 2.431 1.707v.27l1.296.177c4.86.667 8.825-1.65 11.747-5.296 2.92-3.644 5.06-8.618 6.976-13.896s3.592-10.87 5.403-15.678c1.538-4.083 3.242-7.313 5.057-9.528a19 19 0 0 1 1.136 2.039l.004.008.002.008c5.097 10.574 10.866 22.952 22.533 28.747h.002c.843.428 5.388 2.54 11.245.966 5.86-1.576 12.728-6.881 18.125-20.389.748-1.873 2.611-6.222 4.105-9.576 6.04-13.566 8.275-18.628 10.438-23.654a529 529 0 0 1 4.176-9.422c1.306-2.847 2.126-4.995 2.492-6.829.366-1.832.232-3.45-.48-4.782-.84-1.57-1.71-2.771-3-3.52-1.29-.748-2.773-.924-4.625-.924m0 3.003c1.648 0 2.526.177 3.118.52.591.342 1.123.966 1.857 2.337.344.643.468 1.367.185 2.778-.281 1.412-1.013 3.412-2.277 6.163a529 529 0 0 0-4.204 9.489c-2.157 5.01-4.384 10.056-10.423 23.62-1.508 3.386-3.36 7.705-4.15 9.683-5.176 12.955-11.298 17.305-16.117 18.601s-8.636-.501-9.105-.74l-.008-.002-.006-.004c-10.482-5.2-16.066-16.767-21.169-27.354a21 21 0 0 0-1.536-2.754 9 9 0 0 0-.774-1.022c-.264-.296-.445-.575-1.078-.818l-.875-.336-.687.64c-2.904 2.705-4.904 7.04-6.77 11.994-1.867 4.953-3.541 10.547-5.417 15.712s-3.973 9.893-6.498 13.042c-2.515 3.139-5.2 4.703-8.958 4.199-.977-.2-1.162-.229-1.834-1.063-.692-.861-1.714-2.693-3.452-6.063l-.01-.017-.007-.017C50.309 90.027 49.35 88.14 45.774 80.636l-.059-.124-.082-.11c-1.325-1.83-1.754-3.82-.882-5.652 1.939-2.881 3.5-3.678 4.752-3.647 1.273.03 2.787 1.009 4.31 2.79 3.048 3.558 5.703 9.711 7.395 12.982l.002.004.002.007c5.79 10.997 12.238 21.747 17.77 32.718a253 253 0 0 0 3.404 6.59c.46.851.843 1.542 1.142 2.046.149.251.274.453.396.632.062.088.118.168.217.281.05.057.105.121.232.22.126.1.297.335.955.335.648 0 .855-.245.996-.36.14-.115.205-.197.267-.271.124-.149.204-.27.295-.414.182-.289.38-.646.62-1.096.478-.898 1.1-2.155 1.835-3.698 1.47-3.085 3.384-7.297 5.374-11.871 3.498-8.039 5.451-12.392 6.93-14.944 1.477-2.552 2.348-3.275 4.237-4.593.849-.594 2.85-1.163 4.928-1.28 2.078-.115 4.27.184 5.54.751 2.414 1.08 5.592 4.402 7.579 8.34l.056.112.075.102c.384.523 1.364 2.205 2.517 4.3 1.154 2.093 2.538 4.663 3.97 7.245s2.914 5.174 4.275 7.34 2.51 3.863 3.705 4.895l.04.035.042.031c1.434 1.072 2.815 1.678 4.179 1.777 1.363.1 2.632-.364 3.624-1.098 1.984-1.468 3.154-3.836 4.269-6.127l.018-.038.017-.039c7.504-17.984 10.218-21.956 18.98-43.257l.001-.004.002-.004c2.593-6.421 4.081-9.798 5.203-11.258.561-.73.934-.975 1.443-1.147.51-.172 1.264-.233 2.399-.233z" transform="translate(-42.016 -15.366)"/>
  <path style="display:inline;fill:#fff;stroke:#000;stroke-width:2" d="M396.367 31.37q-.56.001-1.13.053c-6.063.55-10.462 5.196-9.815 10.364.646 5.168 6.096 8.917 12.16 8.366s10.462-5.195 9.816-10.362c-.606-4.845-5.434-8.445-11.031-8.422zm135.88 29.92q-9.515 0-17.066 3.638-7.55 3.64-12.002 10.67t-4.452 16.335q-.001 9.137 4.582 16.208 4.584 7.072 12.31 10.834 7.769 3.721 17.284 3.723 12.352 0 23.659-7.485l-6.419-10.999q-8.467 5.664-16.977 5.663-8.163 0-13.444-4.796-5.238-4.797-5.238-13.232 0-8.31 5.194-13.109 5.238-4.837 13.313-4.838 8.424.001 16.892 5.75l6.505-11.002q-11.35-7.36-24.14-7.36zm-187.225.078q-5.776.001-10.899 1.196-5.08 1.157-9.088 3.384-3.96 2.227-6.289 5.774-2.282 3.546-2.282 7.96 0 4.042 1.632 6.971 1.63 2.928 5.075 4.95 3.448 1.979 8.015 3.297 4.565 1.28 11.226 2.268a164 164 0 0 1 4.195.786q1.443.288 3.307.783 1.91.455 2.797.95.884.455 1.769 1.155.933.7 1.26 1.65.324.906.325 2.1 0 1.734-.979 2.931-.931 1.195-2.795 1.813-1.817.58-3.867.827-2.05.206-4.845.205-6.15 0-13.839-1.443-7.64-1.484-12.81-3.877l-1.304 12.333q11.274 5.238 27.953 5.238 6.196 0 11.554-1.155 5.357-1.195 9.458-3.463 4.147-2.27 6.476-5.86 2.376-3.588 2.375-8.124 0-3.3-1.164-5.94a13.8 13.8 0 0 0-3.31-4.62q-2.14-1.978-5.495-3.504t-7.455-2.559q-4.054-1.029-9.411-1.854-7.454-1.238-10.062-2.475-2.61-1.28-2.61-3.96 0-1.65.792-2.765.791-1.155 2.329-1.731a13.5 13.5 0 0 1 3.446-.825q1.91-.248 4.52-.249 10.156.001 22.318 4.538l2.003-12.332q-10.808-4.373-24.321-4.373Zm107.823.02q-14.107-.001-22.441 7.174-8.336 7.176-8.336 19.471v34.535h16.483V89.377q0-6.84 3.725-10.49 3.772-3.65 10.569-3.65 6.937 0 10.757 3.647 3.865 3.653 3.864 10.493v33.19h16.297V88.034q0-12.296-8.335-19.47-8.288-7.176-22.583-7.175zm-246.142.526 17.543 60.682h20.403l11.433-39.938 11.038 39.938h20.406l18.037-60.682h-18.137l-10.053 44.17-11.828-44.17h-18.53l-12.319 44.17-9.957-44.17zm181.354.23v60.542h16.353V62.144Z" transform="translate(-42.016 -15.366)"/>
  <path style="fill:#0bf5f4;stroke-width:.771405" d="m114.106 24.749-.586.976 37.274 22.29-72.442 7.682 31.801-29.452-.771-.834-33.28 30.819.774.834.207-.19 75.19-7.976.174.104.079-.13.411-.044-.058-.544.153-.258-.195-.116-.012-.111-.148.016z" transform="translate(-42.016 -15.366)"/>
  <path d="M151.032 36.413c-6.374.68-11 6.408-10.32 12.784.68 6.374 6.409 11 12.783 10.32 6.375-.679 11.001-6.41 10.321-12.783-.679-6.375-6.409-11-12.784-10.321m.096.889a10.72 10.72 0 0 1 11.8 9.526 10.72 10.72 0 0 1-9.527 11.801 10.717 10.717 0 0 1-11.8-9.526 10.717 10.717 0 0 1 9.526-11.801" style="stroke-width:.84232" transform="translate(-42.016 -15.366)"/>
  <path style="fill:#fff" d="M163.37 46.78a11.17 11.17 0 0 1-9.923 12.292 11.17 11.17 0 0 1-12.292-9.925 11.17 11.17 0 0 1 9.924-12.292 11.17 11.17 0 0 1 12.292 9.925" transform="translate(-42.016 -15.366)"/>
  <path style="fill:#0bf5f4" d="M123.002 25.353a11.17 11.17 0 0 1-9.925 12.292 11.17 11.17 0 0 1-12.292-9.924 11.17 11.17 0 0 1 9.924-12.292 11.17 11.17 0 0 1 12.293 9.924" transform="translate(-42.016 -15.366)"/>
  <path style="fill:#ff000f" d="M585.426 94.925c.595 5.584-3.448 10.592-9.031 11.187s-10.59-3.449-11.186-9.031c-.594-5.583 3.45-10.59 9.031-11.186 5.583-.594 10.59 3.449 11.186 9.031M86.303 52.432c.654 6.135-3.79 11.639-9.924 12.292-6.135.655-11.639-3.788-12.293-9.923s3.79-11.64 9.924-12.293c6.136-.654 11.64 3.79 12.293 9.924" transform="translate(-42.016 -15.366)"/>
</svg>